<svg xmlns="http://www.w3.org/2000/svg" viewBox="0 0 224.79 224.81"><defs><style>.cls-1{fill:#f9286d;}</style></defs><title>Ativo 7</title><g id="Camada_2" data-name="Camada 2"><g id="Camada_1-2" data-name="Camada 1"><path class="cls-1" d="M29.76,193.63a2.68,2.68,0,0,0,2-.68l79.47-70.48L115,138.4a2.71,2.71,0,0,0,4.78,1.1l12.15-15.16,19.22,1.52a2.78,2.78,0,0,0,2.56-1.35,2.86,2.86,0,0,0-.05-3L143.17,105.2l7.38-18a2.85,2.85,0,0,0-.47-2.93,2.69,2.69,0,0,0-2.75-.85l-18.64,5.05L114,75.81a2.67,2.67,0,0,0-2.84-.44,2.82,2.82,0,0,0-1.67,2.42l-1,19.46-16.43,10.2a2.84,2.84,0,0,0-1.31,2.65,2.79,2.79,0,0,0,1.75,2.35l15.06,5.86L28.15,188.74a2.83,2.83,0,0,0-.26,4A2.69,2.69,0,0,0,29.76,193.63Z"/><polygon class="cls-1" points="94.78 74.33 91.36 65.96 86.23 73.41 77.95 76.89 85.3 82.06 88.72 90.43 93.85 82.98 102.13 79.5 94.78 74.33"/><polygon class="cls-1" points="143.19 143.57 140.42 136.79 136.28 142.82 129.58 145.64 135.52 149.82 138.29 156.59 142.44 150.56 149.13 147.75 143.19 143.57"/><polygon class="cls-1" points="142.8 61.92 140.03 55.15 135.89 61.17 129.19 63.99 135.13 68.17 137.9 74.94 142.05 68.92 148.75 66.1 142.8 61.92"/><path class="cls-1" d="M224.72,69.87c0-3.92-.07-7.84-.15-11.76,0-2.25-.18-4.49-.3-6.74A83.89,83.89,0,0,0,223,40.76,50.41,50.41,0,0,0,220.78,32,47.23,47.23,0,0,0,200,7.42a39.8,39.8,0,0,0-8-3.69,69.77,69.77,0,0,0-15.45-3C173.17.45,169.78.29,166.4.16c-3-.12-6-.16-9-.16h-.21Q109.91,0,62.67.11C58.78.12,54.89.34,51,.54A77,77,0,0,0,39.88,1.93a50.14,50.14,0,0,0-8.19,2.18,46.82,46.82,0,0,0-17.37,11.5A45.84,45.84,0,0,0,2.25,38.26,98.88,98.88,0,0,0,.34,54C.18,57.38.11,60.79,0,64.2,0,66.12,0,68,0,70q0,39.8,0,79.61c0,4,.05,8.09.1,12.14,0,2.22.07,4.45.15,6.67.07,1.92.19,3.84.3,5.75a82.06,82.06,0,0,0,1.26,10.15,51.65,51.65,0,0,0,2.2,8.5,46.52,46.52,0,0,0,12,18.08,45.54,45.54,0,0,0,21,11.36,93.45,93.45,0,0,0,17.19,2.2q6.89.29,13.8.31l19.67,0H112.4v.05l50.54-.17c3.74,0,7.48-.18,11.21-.44A87.14,87.14,0,0,0,185,222.8a48.42,48.42,0,0,0,7.76-2.05,47.24,47.24,0,0,0,23.44-18.91,41.73,41.73,0,0,0,4.87-10.07A69.65,69.65,0,0,0,224,176.23q.43-5.29.58-10.6c.13-4.75.17-9.51.16-14.26Q224.78,110.62,224.72,69.87ZM164.64,90.39c-.7,1.05-.41,2.12-.42,3.11q-.22,40.11-.41,80.21c0,1.1-.13,2.21-.2,3.31L75,176.59c-.05-1-.15-2.05-.15-3.08q0-6.43.06-12.87a2.24,2.24,0,0,1-.28.3Q57,176.76,39.28,192.6l-4.58,4.1a7.27,7.27,0,1,1-9.62-10.89q18.51-16.55,37-33.12l12.69-11.35.27-.21q.11-24,.22-48.07c0-1,.32-2.05-.46-3.18-.7.56-1.38,1.08-2,1.64-3.87,3.41-7.76,6.8-11.57,10.27-1.14,1-1.92,1.17-3.17.07Q47.93,93,37.66,84.31c-1.15-1-1.31-1.62-.35-2.87,7.63-9.95,15.15-20,22.77-29.92a17,17,0,0,1,8.64-6.41q15.6-4.69,31.16-9.5c1.6-.5,2.33-.3,2.91,1.43,2.68,8,8.53,12.14,17,12.2,8.7.06,14.64-3.93,17.47-12,.59-1.66,1.21-2,2.88-1.47,9.81,3.16,19.62,6.3,29.49,9.25A19.33,19.33,0,0,1,180,52.3q11.16,15,22.31,30c.82,1.09.94,1.74-.22,2.71q-10.52,8.75-20.91,17.66c-1.13,1-1.84.74-2.8-.15-2.73-2.54-5.48-5.06-8.3-7.5C168.28,93.44,166.71,91.65,164.64,90.39Z"/></g></g></svg>