<?xml version="1.0" encoding="iso-8859-1"?>
<!-- Generator: Adobe Illustrator 19.0.0, SVG Export Plug-In . SVG Version: 6.00 Build 0)  -->
<svg version="1.1" id="Capa_1" xmlns="http://www.w3.org/2000/svg" xmlns:xlink="http://www.w3.org/1999/xlink" x="0px" y="0px"
	 viewBox="0 0 512 512" style="enable-background:new 0 0 512 512;" xml:space="preserve">
<circle style="fill:#005C83;" cx="256" cy="256" r="256"/>
<path style="fill:#00263F;" d="M512,256c0-8.393-0.417-16.687-1.206-24.873l-79.461-79.46l-182.38,24.954L149.333,77l-6.796,32.769
	l-27.701,1.732l88.539,88.539L80.667,231l148.309,148.309l-79.643,28.357L253.637,511.97c0.788,0.007,1.573,0.03,2.363,0.03
	C397.385,512,512,397.385,512,256z"/>
<path style="fill:#FFFFFF;" d="M149.334,146c-1.955-21.045-13.455-32.545-34.499-34.499c21.044-1.956,32.543-13.456,34.497-34.501
	c1.955,21.045,13.455,32.545,34.499,34.499C162.788,113.455,151.289,124.955,149.334,146z"/>
<path style="fill:#E0E0E0;" d="M407.001,353.763c-1.814-19.52-12.48-30.186-31.999-31.999c19.519-1.814,30.185-12.481,31.997-32.001
	c1.814,19.52,12.48,30.186,31.999,31.999C419.479,323.576,408.814,334.243,407.001,353.763z"/>
<rect x="80.67" y="151.67" style="fill:#FFB344;" width="350.67" height="79.33"/>
<rect x="255.67" y="151.67" style="fill:#FF9451;" width="175.67" height="79.33"/>
<rect x="149.33" y="151.67" style="fill:#FFDC00;" width="213.33" height="256"/>
<rect x="255.67" y="151.67" style="fill:#FFC000;" width="107" height="256"/>
<path style="fill:#FF9451;" d="M309.333,151.667C309.333,181.122,285.455,205,256,205s-53.333-23.878-53.333-53.333L309.333,151.667
	L309.333,151.667z"/>
<path style="fill:#F7674F;" d="M255.667,151.667v53.325c0.112,0,0.221,0.008,0.333,0.008c29.455,0,53.333-23.878,53.333-53.333
	L255.667,151.667L255.667,151.667z"/>
<g>
</g>
<g>
</g>
<g>
</g>
<g>
</g>
<g>
</g>
<g>
</g>
<g>
</g>
<g>
</g>
<g>
</g>
<g>
</g>
<g>
</g>
<g>
</g>
<g>
</g>
<g>
</g>
<g>
</g>
</svg>
